<svg width="24" height="24" viewBox="0 0 24 24" fill="none" xmlns="http://www.w3.org/2000/svg">
<path d="M15.84 22H8.16C3.97 22 3.14 19.47 4.5 16.39L5.94 13.12C5.94 13.12 9 13 12 14C15 15 17.83 13.11 17.83 13.11L18.02 12.99L19.51 16.4C20.85 19.48 19.97 22 15.84 22Z" fill="white"/>
<path d="M15.44 6.74H15.28L17.41 11.6L17 11.86C16.98 11.87 14.72 13.32 12.47 12.58C10.12 11.79 7.76 11.65 6.6 11.63L8.74 6.74H8.44C7.79 6.74 7.19 6.48 6.76 6.05C6.33 5.62 6.07 5.02 6.07 4.37C6.07 3.07 7.13 2 8.44 2H15.55C16.21 2 16.8 2.27 17.23 2.7C17.79 3.26 18.08 4.08 17.86 4.95C17.6 6.03 16.56 6.74 15.44 6.74Z" fill="white"/>
</svg>
