<svg width="24" height="24" viewBox="0 0 24 24" fill="none" xmlns="http://www.w3.org/2000/svg">
<path d="M21.79 20.76L21.07 20.04C21.44 19.48 21.66 18.8 21.66 18.08C21.66 16.1 20.06 14.5 18.08 14.5C16.1 14.5 14.5 16.1 14.5 18.08C14.5 20.06 16.1 21.66 18.08 21.66C18.81 21.66 19.48 21.44 20.04 21.07L20.76 21.79C20.9 21.93 21.09 22 21.27 22C21.46 22 21.64 21.93 21.78 21.79C22.07 21.5 22.07 21.04 21.79 20.76Z" fill="white"/>
<path d="M2.02999 14.63C2.02999 14.66 2.00999 14.7 2.00999 14.73C2.92999 16.57 4.42999 18.08 6.26999 18.99C6.29999 18.99 6.33999 18.97 6.36999 18.97C6.02999 17.81 5.76999 16.62 5.57999 15.43C4.37999 15.23 3.18999 14.97 2.02999 14.63Z" fill="white"/>
<path d="M19.07 6.43C18.13 4.46 16.54 2.87 14.58 1.94C14.94 3.13 15.24 4.35 15.44 5.57C16.66 5.77 17.88 6.06 19.07 6.43Z" fill="white"/>
<path d="M1.92999 6.42999C3.12999 6.06999 4.34999 5.76999 5.56999 5.56999C5.76999 4.37999 6.01999 3.19999 6.35999 2.03999C6.32999 2.03999 6.28999 2.01999 6.25999 2.01999C4.37999 2.94999 2.84999 4.51999 1.92999 6.42999Z" fill="white"/>
<path d="M13.82 5.36C13.58 4.06 13.28 2.76 12.85 1.5C12.83 1.43 12.83 1.37 12.82 1.29C12.08 1.11 11.3 1 10.5 1C9.68999 1 8.91999 1.11 8.16999 1.3C8.15999 1.37 8.16999 1.43 8.14999 1.51C7.72999 2.77 7.41999 4.06 7.17999 5.36C9.38999 5.12 11.61 5.12 13.82 5.36Z" fill="white"/>
<path d="M5.36 7.17999C4.05 7.41999 2.77 7.72999 1.5 8.14999C1.43 8.16999 1.37 8.16999 1.3 8.17999C1.11 8.91999 1 9.69999 1 10.5C1 11.31 1.11 12.08 1.3 12.83C1.37 12.84 1.43 12.83 1.51 12.85C2.77 13.27 4.06 13.58 5.37 13.82C5.12 11.61 5.12 9.38999 5.36 7.17999Z" fill="white"/>
<path d="M19.7 8.17999C19.63 8.17999 19.57 8.16999 19.49 8.14999C18.23 7.72999 16.93 7.41999 15.63 7.17999C15.88 9.38999 15.88 11.61 15.63 13.81C16.93 13.57 18.23 13.27 19.49 12.84C19.56 12.82 19.62 12.83 19.7 12.82C19.88 12.07 20 11.3 20 10.49C20 9.69999 19.89 8.92999 19.7 8.17999Z" fill="white"/>
<path d="M7.17999 15.64C7.41999 16.95 7.71999 18.24 8.14999 19.5C8.16999 19.57 8.15999 19.63 8.16999 19.71C8.91999 19.89 9.68999 20 10.5 20C11.3 20 12.08 19.89 12.82 19.7C12.83 19.63 12.83 19.57 12.85 19.49C13.27 18.23 13.58 16.94 13.82 15.63C12.72 15.75 11.61 15.84 10.5 15.84C9.38999 15.84 8.27999 15.76 7.17999 15.64Z" fill="white"/>
<path d="M6.95001 6.95001C6.65001 9.31001 6.65001 11.69 6.95001 14.06C9.31001 14.36 11.69 14.36 14.06 14.06C14.36 11.7 14.36 9.32001 14.06 6.95001C11.69 6.65001 9.31001 6.65001 6.95001 6.95001Z" fill="white"/>
</svg>
